<?xml version="1.0" encoding="UTF-8"?>
<svg version="1.1" xmlns="http://www.w3.org/2000/svg" width="417" height="349">
<path d="M0 0 C1.13268311 0.00491455 2.26536621 0.0098291 3.43237305 0.01489258 C25.86910864 0.32587157 49.27130233 6.82231168 65.85546875 22.69140625 C69.33840834 26.40691096 72.58387183 30.30794717 75.85009766 34.21362305 C80.17566285 39.31612362 84.81264552 43.48084783 90.3125 47.3125 C91.55193359 48.18068359 91.55193359 48.18068359 92.81640625 49.06640625 C98.09766951 52.58462484 103.54632348 55.44322754 109.25 58.1875 C125.07160456 65.87493845 138.50220631 76.8019356 145.3125 93.3125 C147.57952621 100.11357863 147.13592427 108.04379402 144.21484375 114.5859375 C136.39457241 129.54940041 121.99771199 137.3611089 106.45922852 142.36230469 C80.15006895 150.18402084 51.59353795 148.78916998 24.89697266 143.73901367 C4.90504185 140.01340967 -11.99743808 141.31334357 -31.97265625 145.12109375 C-63.32665479 150.92206966 -99.97834509 149.65497024 -127.6875 132.3125 C-136.76263111 125.68565329 -143.89297814 117.61798774 -145.6875 106.3125 C-146.68210805 93.97936013 -141.54017149 85.21960016 -133.7578125 76.03515625 C-124.67783648 66.28703105 -112.73157823 59.90338178 -101.375 53.1875 C-94.35092233 49.02890434 -87.80856107 44.74836767 -81.6875 39.3125 C-80.9140625 38.65765625 -80.140625 38.0028125 -79.34375 37.328125 C-74.95315852 33.55221633 -71.11047623 29.58695956 -67.35546875 25.1875 C-62.02507852 19.19549225 -55.64057453 15.204891 -48.6875 11.3125 C-48.07519531 10.95285156 -47.46289062 10.59320313 -46.83203125 10.22265625 C-42.41513478 7.79482574 -37.72308058 6.22576259 -32.9375 4.6875 C-32.30634277 4.48116943 -31.67518555 4.27483887 -31.02490234 4.06225586 C-20.83769984 0.9156444 -10.62365238 -0.0550531 0 0 Z " fill="#FF2F18" transform="translate(207.6875,114.6875)"/>
<path d="M0 0 C22.69921023 8.30515811 45.24319167 23.8050785 56.57543945 45.65722656 C60.96375922 55.89663936 60.50286037 69.07597329 56.4543457 79.38769531 C49.65111781 93.05196889 38.19297232 102.58691928 24.07543945 108.15722656 C16.84007195 110.50710596 9.82988251 110.52422345 2.26293945 110.53222656 C0.45212891 110.56896484 0.45212891 110.56896484 -1.39526367 110.60644531 C-9.37509529 110.63233984 -15.65984192 109.45354924 -22.92456055 106.15722656 C-23.95709961 105.69960937 -24.98963867 105.24199219 -26.0534668 104.77050781 C-38.43889523 98.15036709 -48.07141048 88.80524947 -52.79956055 75.34472656 C-58.06126734 57.04173422 -55.39841237 31.22853514 -46.36206055 14.47363281 C-41.81891087 7.15274217 -36.67713459 2.83614663 -28.92456055 -0.84277344 C-21.29968884 -4.65520929 -7.85199612 -2.54114407 0 0 Z " fill="#FF3019" transform="translate(276.924560546875,1.8427734375)"/>
<path d="M0 0 C1.14662109 -0.04350586 1.14662109 -0.04350586 2.31640625 -0.08789062 C11.15871117 -0.18547124 17.59601103 3.87160355 23.94921875 9.796875 C37.63969199 25.6257166 38.21221646 49.44462588 37.125 69.3125 C35.48482239 81.62773188 28.13321193 92.04709415 19.125 100.3125 C2.72609863 112.64889792 -13.90060983 114.08104917 -33.875 112.3125 C-38.94134751 111.48396346 -43.35766267 109.74396299 -47.875 107.3125 C-49.32132813 106.55066406 -49.32132813 106.55066406 -50.796875 105.7734375 C-63.00426669 98.65807936 -70.6962982 89.28301002 -75.875 76.3125 C-79.09091404 64.10752502 -77.39435174 53.66619047 -71.21875 42.94140625 C-68.02390834 37.80969183 -64.16815867 33.54592777 -59.875 29.3125 C-59.24722656 28.59191406 -58.61945313 27.87132813 -57.97265625 27.12890625 C-43.82347313 11.41070481 -21.07821241 0.26391752 0 0 Z " fill="#FF3019" transform="translate(156.875,-0.3125)"/>
<path d="M0 0 C10.8750123 8.38251289 18.17132102 19.56981432 21.11328125 33.08203125 C22.24477481 46.0185142 21.56577725 57.31502496 13.73828125 68.08203125 C2.39400849 81.22300283 -14.21323935 91.77288463 -31.88671875 93.08203125 C-48.38236266 93.96993158 -63.97649536 92.58986615 -76.88671875 81.08203125 C-78.87109375 78.4609375 -78.87109375 78.4609375 -80.63671875 75.64453125 C-81.52617187 74.25427734 -81.52617187 74.25427734 -82.43359375 72.8359375 C-86.29007632 65.52728102 -86.06778558 55.21184561 -84.23828125 47.265625 C-80.54405025 37.43012965 -74.23491301 29.05691648 -67.09765625 21.46875 C-65.50501398 19.74948423 -63.98650656 17.96047976 -62.51953125 16.1328125 C-59.80082327 12.84748942 -56.73667574 10.20632851 -53.38671875 7.58203125 C-52.78013428 7.10644775 -52.1735498 6.63086426 -51.54858398 6.14086914 C-45.72810119 1.72442042 -39.72239961 -1.29541529 -32.88671875 -3.91796875 C-31.71109375 -4.37171875 -30.53546875 -4.82546875 -29.32421875 -5.29296875 C-18.58367466 -7.24579495 -9.17802314 -6.0979829 0 0 Z " fill="#FF3019" transform="translate(394.88671875,84.91796875)"/>
<path d="M0 0 C8.60086926 6.65574959 15.82225378 13.99204601 22.2890625 22.71484375 C22.74531006 23.32787354 23.20155762 23.94090332 23.67163086 24.57250977 C26.78822028 28.88747809 29.24711317 33.32381562 31.4765625 38.15234375 C31.88003906 38.96316406 32.28351563 39.77398437 32.69921875 40.609375 C35.13865849 48.58965275 34.90049812 59.4813195 31.2265625 66.96484375 C30.35136241 68.3870439 29.44001635 69.78838438 28.4765625 71.15234375 C27.6103125 72.51359375 27.6103125 72.51359375 26.7265625 73.90234375 C16.87494936 83.75395689 4.53726935 87.36175802 -9.0234375 87.40234375 C-26.53800398 87.35188767 -43.26584347 82.02352271 -56.5234375 70.15234375 C-57.26980469 69.50910156 -58.01617187 68.86585938 -58.78515625 68.203125 C-66.92825967 60.70608598 -71.92093392 51.77831767 -72.796875 40.69140625 C-73.16829709 26.37737047 -70.01274613 14.34536959 -60.5234375 3.15234375 C-59.91628906 2.43433594 -59.30914062 1.71632813 -58.68359375 0.9765625 C-41.54667168 -17.63224245 -18.8706074 -13.81702368 0 0 Z " fill="#FF301A" transform="translate(72.5234375,90.84765625)"/>
<path d="M0 0 C4.95 0 9.9 0 15 0 C27 23.73786408 27 23.73786408 27 27 C27.66 27 28.32 27 29 27 C29.33837891 25.83404297 29.33837891 25.83404297 29.68359375 24.64453125 C31.43653179 19.79144167 33.73219326 15.28548855 36.0625 10.6875 C36.75182617 9.30981445 36.75182617 9.30981445 37.45507812 7.90429688 C40.85944475 1.14055525 40.85944475 1.14055525 42 0 C44.53049402 -0.07313567 47.03304837 -0.09247527 49.5625 -0.0625 C50.62887695 -0.05573242 50.62887695 -0.05573242 51.71679688 -0.04882812 C53.47790013 -0.03700864 55.23896036 -0.01907263 57 0 C57 0.66 57 1.32 57 2 C55.02 2.33 53.04 2.66 51 3 C51 14.55 51 26.1 51 38 C53.97 38.495 53.97 38.495 57 39 C57 39.66 57 40.32 57 41 C50.4 41 43.8 41 37 41 C37 40.34 37 39.68 37 39 C39.475 38.505 39.475 38.505 42 38 C41.67 30.41 41.34 22.82 41 15 C40.19175781 16.79308594 39.38351562 18.58617187 38.55078125 20.43359375 C37.47232812 22.76867923 36.39284767 25.10329044 35.3125 27.4375 C34.51682617 29.21350586 34.51682617 29.21350586 33.70507812 31.02539062 C33.17978516 32.15009766 32.65449219 33.27480469 32.11328125 34.43359375 C31.63673096 35.47572021 31.16018066 36.51784668 30.66918945 37.59155273 C29 40 29 40 26.30541992 40.84790039 C25.16423706 40.9231897 25.16423706 40.9231897 24 41 C19.95154868 32.35474804 15.93237683 23.6988942 12 15 C11.67 22.59 11.34 30.18 11 38 C12.98 38.33 14.96 38.66 17 39 C17 39.66 17 40.32 17 41 C11.39 41 5.78 41 0 41 C0 40.34 0 39.68 0 39 C2.475 38.505 2.475 38.505 5 38 C5 26.45 5 14.9 5 3 C3.35 2.67 1.7 2.34 0 2 C0 1.34 0 0.68 0 0 Z " fill="#1D1D1D" transform="translate(249,307)"/>
<path d="M0 0 C5.37929841 -1.1186731 10.7390625 -1.99777929 16 0 C20.95256251 4.19358231 24.26430433 9.99296655 27.49291992 15.55297852 C29.49810569 18.80876612 31.77750119 21.88850166 34 25 C34.33 17.74 34.66 10.48 35 3 C33.02 2.67 31.04 2.34 29 2 C29 1.34 29 0.68 29 0 C34.61 0 40.22 0 46 0 C46 0.66 46 1.32 46 2 C44.35 2.33 42.7 2.66 41 3 C41 15.54 41 28.08 41 41 C35 41 35 41 33.015625 39.3046875 C32.14164062 38.10199219 32.14164062 38.10199219 31.25 36.875 C30.57839844 35.96878906 29.90679687 35.06257813 29.21484375 34.12890625 C28.48394531 33.09636719 27.75304687 32.06382812 27 31 C26.14811753 29.8209044 25.29521557 28.64254483 24.44140625 27.46484375 C21.93625756 23.99368754 19.46751961 20.49800089 17 17 C15.35 14.69 13.7 12.38 12 10 C11.67 19.24 11.34 28.48 11 38 C12.98 38.33 14.96 38.66 17 39 C17 39.66 17 40.32 17 41 C11.39 41 5.78 41 0 41 C0 40.34 0 39.68 0 39 C2.475 38.505 2.475 38.505 5 38 C5 26.45 5 14.9 5 3 C3.35 2.67 1.7 2.34 0 2 C0 1.34 0 0.68 0 0 Z " fill="#202020" transform="translate(358,307)"/>
<path d="M0 0 C5.37929841 -1.1186731 10.7390625 -1.99777929 16 0 C20.95256251 4.19358231 24.26430433 9.99296655 27.49291992 15.55297852 C29.49810569 18.80876612 31.77750119 21.88850166 34 25 C34.33 17.74 34.66 10.48 35 3 C33.02 2.67 31.04 2.34 29 2 C29 1.34 29 0.68 29 0 C34.61 0 40.22 0 46 0 C46 0.66 46 1.32 46 2 C44.35 2.33 42.7 2.66 41 3 C41 15.54 41 28.08 41 41 C35 41 35 41 33.015625 39.3046875 C32.14164063 38.10199219 32.14164063 38.10199219 31.25 36.875 C30.57839844 35.96878906 29.90679687 35.06257813 29.21484375 34.12890625 C28.48394531 33.09636719 27.75304687 32.06382812 27 31 C26.14811753 29.8209044 25.29521557 28.64254483 24.44140625 27.46484375 C21.93625756 23.99368754 19.46751961 20.49800089 17 17 C15.35 14.69 13.7 12.38 12 10 C11.67 19.24 11.34 28.48 11 38 C12.98 38.33 14.96 38.66 17 39 C17 39.66 17 40.32 17 41 C11.39 41 5.78 41 0 41 C0 40.34 0 39.68 0 39 C2.475 38.505 2.475 38.505 5 38 C5 26.45 5 14.9 5 3 C3.35 2.67 1.7 2.34 0 2 C0 1.34 0 0.68 0 0 Z " fill="#202020" transform="translate(141,307)"/>
<path d="M0 0 C4.54154478 -0.08735463 9.08287232 -0.14051247 13.625 -0.1875 C15.55279297 -0.22520508 15.55279297 -0.22520508 17.51953125 -0.26367188 C19.38544922 -0.27817383 19.38544922 -0.27817383 21.2890625 -0.29296875 C23.00150146 -0.31653442 23.00150146 -0.31653442 24.74853516 -0.34057617 C28.47046733 0.04927932 30.82583569 1.04171076 34 3 C36.82605874 7.2390881 36.66012246 11.02124503 36 16 C33.94892412 19.39488422 32.29515379 20.80323081 29 23 C30.54811081 25.30262695 32.11206691 27.59118068 33.6875 29.875 C34.12255859 30.52597656 34.55761719 31.17695313 35.00585938 31.84765625 C37.601265 35.57735026 39.39715315 37.82233468 44 39 C44 39.66 44 40.32 44 41 C39.49678191 41.67960151 35.47892573 41.92862034 31 41 C27.45473124 37.8308284 25.28518867 34.13835163 23 30 C21.74398775 27.86560009 20.50782839 25.97577513 19 24 C17.35 23.67 15.7 23.34 14 23 C14 27.95 14 32.9 14 38 C15.98 38.33 17.96 38.66 20 39 C20 39.66 20 40.32 20 41 C13.4 41 6.8 41 0 41 C0 40.34 0 39.68 0 39 C2.475 38.505 2.475 38.505 5 38 C5 26.45 5 14.9 5 3 C3.35 2.67 1.7 2.34 0 2 C0 1.34 0 0.68 0 0 Z M14 3 C14 8.61 14 14.22 14 20 C20.54526446 20.33748015 20.54526446 20.33748015 26 18 C27.67677059 14.2090404 28.11938865 11.79094984 27.5 7.6875 C26.20906444 4.78194863 26.20906444 4.78194863 23.25 3.625 C19.56958532 2.81115261 19.56958532 2.81115261 14 3 Z " fill="#1D1D1D" transform="translate(46,307)"/>
<path d="M0 0 C4.93486974 4.37183091 7.65217665 8.88936044 8.21484375 15.5390625 C8.47554726 23.10989241 7.50360718 28.78107648 2.8125 34.8125 C-4.51931229 40.51502067 -11.99336651 40.80033915 -21 40 C-26.43716423 39.01865816 -30.40885447 36.66594763 -33.8046875 32.27734375 C-37.43332166 25.36396559 -37.80504511 16.7047642 -35.8828125 9.22265625 C-33.83060219 4.05580817 -30.51168331 0.37967462 -25.4375 -1.9375 C-17.597885 -4.36010656 -7.09088307 -4.58726832 0 0 Z M-25 5 C-27.31448658 9.44841037 -27.33376935 13.5412956 -27.3125 18.4375 C-27.32861328 19.17548828 -27.34472656 19.91347656 -27.36132812 20.67382812 C-27.36633434 26.30581929 -26.27474251 30.55675805 -22.3125 34.8125 C-18.96556862 36.53119449 -15.72240127 37.10779154 -12 37 C-6.79715714 35.2990706 -4.57451841 32.76762668 -2 28 C0.43937343 20.47859858 -0.55798313 12.02452422 -4 5 C-6.32980529 2.01493697 -7.86117394 1.16293445 -11.59375 0.62890625 C-17.2135255 0.37964201 -21.17672187 0.43673256 -25 5 Z " fill="#212121" transform="translate(129,309)"/>
<path d="M0 0 C2.64 0 5.28 0 8 0 C11.49401763 6.61367623 14.2787227 13.43840047 17.00146484 20.40161133 C17.75619507 22.32831501 18.5203604 24.25110109 19.28515625 26.17382812 C20.00251953 28.00010742 20.00251953 28.00010742 20.734375 29.86328125 C21.16975586 30.96969971 21.60513672 32.07611816 22.05371094 33.21606445 C23 36 23 36 23 39 C25.97 39.495 25.97 39.495 29 40 C29 40.66 29 41.32 29 42 C22.07 42 15.14 42 8 42 C8 41.34 8 40.68 8 40 C9.65 39.34 11.3 38.68 13 38 C12.01 35.03 11.02 32.06 10 29 C5.05 28.67 0.1 28.34 -5 28 C-5.33 29.98 -5.66 31.96 -6 34 C-6.32635698 35.66804677 -6.65725594 37.33524314 -7 39 C-5.68 39.33 -4.36 39.66 -3 40 C-3 40.66 -3 41.32 -3 42 C-8.61 42 -14.22 42 -20 42 C-20 41.34 -20 40.68 -20 40 C-17.03 39.505 -17.03 39.505 -14 39 C-13.89042969 38.16049805 -13.78085937 37.32099609 -13.66796875 36.45605469 C-12.93855295 32.6820744 -11.7233452 29.26008709 -10.3125 25.703125 C-10.04993408 25.02828064 -9.78736816 24.35343628 -9.5168457 23.65814209 C-8.68328983 21.51994122 -7.84166706 19.38501912 -7 17.25 C-6.43438654 15.80097995 -5.86927733 14.35176295 -5.3046875 12.90234375 C-1.21194657 2.42389313 -1.21194657 2.42389313 0 0 Z M2 9 C1.16280617 11.29032311 0.3301071 13.58210957 -0.5 15.875 C-0.73847656 16.52597656 -0.97695313 17.17695313 -1.22265625 17.84765625 C-2.54877533 21.33457589 -2.54877533 21.33457589 -3 25 C0.96 25 4.92 25 9 25 C7.02 19.72 5.04 14.44 3 9 C2.67 9 2.34 9 2 9 Z " fill="#1F1F1F" transform="translate(327,306)"/>
<path d="M0 0 C11.22 0 22.44 0 34 0 C34 3.3 34 6.6 34 10 C32.68 10 31.36 10 30 10 C29.67 8.02 29.34 6.04 29 4 C24.05 3.67 19.1 3.34 14 3 C14 8.28 14 13.56 14 19 C17.3 19 20.6 19 24 19 C24.33 17.68 24.66 16.36 25 15 C26.65 15 28.3 15 30 15 C30 18.96 30 22.92 30 27 C28.35 27.33 26.7 27.66 25 28 C24.505 25.525 24.505 25.525 24 23 C20.7 23 17.4 23 14 23 C14 27.95 14 32.9 14 38 C17.465 38.495 17.465 38.495 21 39 C21 39.66 21 40.32 21 41 C14.07 41 7.14 41 0 41 C0 40.34 0 39.68 0 39 C2.475 38.505 2.475 38.505 5 38 C5 26.45 5 14.9 5 3 C3.35 2.67 1.7 2.34 0 2 C0 1.34 0 0.68 0 0 Z " fill="#232323" transform="translate(8,307)"/>
<path d="M0 0 C13.2 0 26.4 0 40 0 C40 3.3 40 6.6 40 10 C38.35 10 36.7 10 35 10 C35 8.02 35 6.04 35 4 C29.555 3.505 29.555 3.505 24 3 C24 14.55 24 26.1 24 38 C27.465 38.495 27.465 38.495 31 39 C31 39.66 31 40.32 31 41 C23.74 41 16.48 41 9 41 C9 40.34 9 39.68 9 39 C12.465 38.505 12.465 38.505 16 38 C16 26.45 16 14.9 16 3 C10.555 3.495 10.555 3.495 5 4 C5 5.98 5 7.96 5 10 C3.35 10 1.7 10 0 10 C0 6.7 0 3.4 0 0 Z " fill="#0D0D0D" transform="translate(189,307)"/>
<path d="M0 0 C0.66 0.33 1.32 0.66 2 1 C-3.61 6.61 -9.22 12.22 -15 18 C-15.66 17.67 -16.32 17.34 -17 17 C-11.62789574 10.92530665 -6.3343346 5.09500827 0 0 Z " fill="#FF6655" transform="translate(342,92)"/>
</svg>
